<svg width="40" height="40" viewBox="0 0 40 40" fill="none" xmlns="http://www.w3.org/2000/svg">
<path d="M13.8612 26.5405C14.4476 26.5405 14.923 26.0651 14.923 25.4787C14.923 24.8924 14.4476 24.417 13.8612 24.417C13.2748 24.417 12.7995 24.8924 12.7995 25.4787C12.7995 26.0651 13.2748 26.5405 13.8612 26.5405Z" fill="#E84E0E"/>
<path d="M17.7545 26.5405C18.3409 26.5405 18.8163 26.0651 18.8163 25.4787C18.8163 24.8924 18.3409 24.417 17.7545 24.417C17.1681 24.417 16.6927 24.8924 16.6927 25.4787C16.6927 26.0651 17.1681 26.5405 17.7545 26.5405Z" fill="#E84E0E"/>
<path d="M21.5769 26.5405C22.1633 26.5405 22.6387 26.0651 22.6387 25.4787C22.6387 24.8924 22.1633 24.417 21.5769 24.417C20.9905 24.417 20.5152 24.8924 20.5152 25.4787C20.5152 26.0651 20.9905 26.5405 21.5769 26.5405Z" fill="#E84E0E"/>
<path d="M25.824 26.5405C26.4104 26.5405 26.8857 26.0651 26.8857 25.4787C26.8857 24.8924 26.4104 24.417 25.824 24.417C25.2376 24.417 24.7622 24.8924 24.7622 25.4787C24.7622 26.0651 25.2376 26.5405 25.824 26.5405Z" fill="#E84E0E"/>
<path d="M21.5769 22.9301C22.1633 22.9301 22.6387 22.4548 22.6387 21.8684C22.6387 21.282 22.1633 20.8066 21.5769 20.8066C20.9905 20.8066 20.5152 21.282 20.5152 21.8684C20.5152 22.4548 20.9905 22.9301 21.5769 22.9301Z" fill="#E84E0E"/>
<path d="M27.0179 11.1231H26.8858C26.8854 9.9501 25.9349 9 24.7622 9C23.5896 9 22.6387 9.9501 22.6387 11.1231H17.0465C17.0461 9.9501 16.0956 9 14.923 9C13.7504 9 12.7994 9.9501 12.7994 11.1231H12.3119C10.481 11.1231 8.99998 12.6088 8.99998 14.4355V14.4376V27.6877C8.99998 29.5165 10.4813 31 12.3119 31H27.0179C28.8467 31 30.3319 29.5165 30.3319 27.6877V14.4375V14.4354C30.3319 12.6088 28.8466 11.1231 27.0179 11.1231ZM28.1077 27.6269C28.1077 28.1722 27.6643 28.6178 27.1177 28.6178H12.3518C11.8052 28.6178 11.3601 28.1722 11.3601 27.6269V19.072H28.1077V27.6269Z" fill="#E84E0E"/>
<path d="M25.824 22.9301C26.4104 22.9301 26.8857 22.4548 26.8857 21.8684C26.8857 21.282 26.4104 20.8066 25.824 20.8066C25.2376 20.8066 24.7622 21.282 24.7622 21.8684C24.7622 22.4548 25.2376 22.9301 25.824 22.9301Z" fill="#E84E0E"/>
</svg>
