<svg width="40" height="40" viewBox="0 0 40 40" fill="none" xmlns="http://www.w3.org/2000/svg">
<path fill-rule="evenodd" clip-rule="evenodd" d="M16.6667 10C16.6667 8.15907 18.159 6.66669 20 6.66669C21.8409 6.66669 23.3333 8.15907 23.3333 10C23.3333 11.841 21.8409 13.3334 20 13.3334C18.159 13.3334 16.6667 11.841 16.6667 10ZM16.6667 30C16.6667 28.1591 18.159 26.6667 20 26.6667C21.8409 26.6667 23.3333 28.1591 23.3333 30C23.3333 31.841 21.8409 33.3334 20 33.3334C18.159 33.3334 16.6667 31.841 16.6667 30ZM20 16.6667C18.159 16.6667 16.6667 18.1591 16.6667 20C16.6667 21.841 18.159 23.3334 20 23.3334C21.8409 23.3334 23.3333 21.841 23.3333 20C23.3333 18.1591 21.8409 16.6667 20 16.6667Z" fill="white"/>
</svg>
