<svg width="40" height="40" viewBox="0 0 40 40" fill="none" xmlns="http://www.w3.org/2000/svg">
<path d="M15.1451 18.4099C14.9508 18.4127 14.8263 18.4321 14.7527 18.4511V21.0258C14.8261 21.0447 14.9455 21.0468 15.0534 21.0489C15.8479 21.0701 16.3754 20.6272 16.3754 19.6671C16.3811 18.8323 15.9009 18.3984 15.1451 18.4099Z" fill="#E84E0E"/>
<path d="M21.8183 28.2732C21.8445 28.2746 21.871 28.277 21.8979 28.277H27.9529C28.6611 28.277 29.2373 27.7007 29.2373 26.9925V12.956C29.2373 12.2479 28.6611 11.6716 27.9529 11.6716H21.8979C21.8712 11.6716 21.8445 11.6742 21.8183 11.6754V10L10 11.5772V28.382L21.8183 30V28.2732ZM27.9529 27.5434H21.8979C21.8708 27.5434 21.8445 27.539 21.8183 27.5351V22.0278C23.08 21.8098 24.832 21.6448 26.3474 22.0008L26.5268 22.3486C27.2501 23.7163 28.0228 23.7073 28.3213 23.64C28.3898 23.6246 28.4267 23.6074 28.4267 23.6074L28.4668 23.586C28.4804 23.5774 28.491 23.5665 28.5034 23.5572V26.9929C28.5034 27.2963 28.2565 27.5434 27.9529 27.5434ZM22.3319 21.3751C23.2801 20.2186 24.0463 19.139 24.5398 18.4078L24.5416 18.4119L24.547 18.4036C24.9344 19.2204 25.573 20.4836 26.0127 21.3459L26.0113 21.3455L26.0263 21.3744C24.776 21.1608 23.4333 21.2387 22.329 21.3914L22.3452 21.3726L22.3319 21.3751ZM24.5624 15.9789C24.6004 15.9119 24.6559 15.8941 24.7556 15.8985C24.7574 15.8987 24.9552 15.9117 25.029 16.0472C25.0738 16.1279 25.1387 16.3838 24.7896 17.008H24.7892C24.7892 17.008 24.7441 17.0831 24.6592 17.2187C24.4635 16.5315 24.4764 16.1302 24.5624 15.9789ZM27.0875 22.226C27.4462 22.364 27.7684 22.534 28.0504 22.7351C28.1314 22.8501 28.2063 23.0157 28.1927 23.0938C28.192 23.0976 28.1913 23.1014 28.1891 23.1051C28.0733 23.1264 27.6128 23.1408 27.0875 22.226ZM21.8979 12.4056H27.9529C28.2565 12.4056 28.5034 12.6527 28.5034 12.9561V22.4231C28.4862 22.3985 28.4713 22.3783 28.4625 22.3674L28.4392 22.3372L28.4088 22.3147C27.9389 21.9717 27.3727 21.7074 26.7241 21.5288C26.2616 20.6257 25.3038 18.7434 24.9012 17.8619C25.1344 17.5028 25.2596 17.2935 25.2653 17.2839C25.6285 16.6364 25.7079 16.131 25.5071 15.7744C25.325 15.4516 24.9624 15.3547 24.7771 15.3486C24.4775 15.3349 24.222 15.4631 24.0833 15.7071C23.8718 16.0797 23.9155 16.7324 24.2144 17.6458C24.2277 17.688 24.249 17.7421 24.2771 17.8102C23.7983 18.5344 22.9297 19.7869 21.8182 21.1322V12.4137C21.8445 12.4099 21.8707 12.4056 21.8979 12.4056ZM13.0271 19.8864C12.7477 20.1636 12.3369 20.2846 11.8628 20.2803C11.7585 20.2792 11.6643 20.2727 11.5914 20.2609V21.6098L10.8153 21.5883V17.9055C11.055 17.8556 11.3943 17.8141 11.8786 17.8024C12.3734 17.7903 12.7317 17.884 12.9734 18.0836C13.2064 18.2732 13.3636 18.5919 13.3636 18.97C13.3636 19.3486 13.244 19.6695 13.0271 19.8864ZM16.671 21.2713C16.2518 21.6134 15.6217 21.7625 14.8655 21.7413C14.42 21.7286 14.1075 21.6911 13.8969 21.6564V17.8343C14.2079 17.7751 14.6168 17.7362 15.0534 17.7255C15.7899 17.7075 16.2751 17.8329 16.6596 18.1176C17.0771 18.4227 17.342 18.9194 17.342 19.638C17.342 20.4168 17.0593 20.9491 16.671 21.2713ZM17.952 17.6858L20.563 17.6235V18.4086L18.9022 18.4327V19.3804L20.4526 19.3766V20.1541L18.9022 20.1434V21.8116L17.9517 21.7854V17.6859H17.952V17.6858Z" fill="#E84E0E"/>
<path d="M11.9206 18.4479C11.7585 18.4504 11.649 18.4688 11.5916 18.4866V19.6003C11.6588 19.6173 11.7424 19.6229 11.8577 19.6229C12.2842 19.6233 12.5497 19.3906 12.5497 18.9996C12.5497 18.6478 12.3211 18.4414 11.9206 18.4479Z" fill="#E84E0E"/>
</svg>
