<svg width="200" height="192" viewBox="0 0 200 192" fill="none" xmlns="http://www.w3.org/2000/svg">
<g filter="url(#filter0_ddd_44_2504)">
<path d="M113.37 45.8124L157.966 123.937C163.825 134.353 156.338 147.048 144.294 147.048H55.4279C43.3837 147.048 36.2223 134.028 42.0816 123.937L86.352 45.8124C92.5369 35.3959 107.511 35.3959 113.37 45.8124ZM150.805 128.494L106.209 50.3697C103.604 45.4869 96.4431 45.4869 93.8389 50.3697L49.243 128.494C46.3134 133.051 49.8941 139.236 55.1024 139.236H144.294C150.153 138.91 153.409 133.051 150.805 128.494Z" fill="#E84E0E"/>
<path d="M95.7925 76.4101C95.7925 74.1315 97.7456 72.5039 100.024 72.5039C102.303 72.5039 103.93 74.1315 103.93 76.4101V107.009C103.93 109.287 102.303 111.241 100.024 111.241C97.7456 111.241 95.7925 109.287 95.7925 107.009V76.4101Z" fill="#E84E0E"/>
<path d="M105.232 123.284C105.232 126.214 102.953 128.493 100.023 128.493C97.0936 128.493 94.8149 126.214 94.8149 123.284C94.8149 120.355 97.0936 118.076 100.023 118.076C102.953 118.076 105.232 120.355 105.232 123.284Z" fill="#E84E0E"/>
</g>
<defs>
<filter id="filter0_ddd_44_2504" x="0" y="0" width="200" height="191.049" filterUnits="userSpaceOnUse" color-interpolation-filters="sRGB">
<feFlood flood-opacity="0" result="BackgroundImageFix"/>
<feColorMatrix in="SourceAlpha" type="matrix" values="0 0 0 0 0 0 0 0 0 0 0 0 0 0 0 0 0 0 127 0" result="hardAlpha"/>
<feOffset dx="-1" dy="-1"/>
<feGaussianBlur stdDeviation="10"/>
<feComposite in2="hardAlpha" operator="out"/>
<feColorMatrix type="matrix" values="0 0 0 0 1 0 0 0 0 1 0 0 0 0 1 0 0 0 1 0"/>
<feBlend mode="normal" in2="BackgroundImageFix" result="effect1_dropShadow_44_2504"/>
<feColorMatrix in="SourceAlpha" type="matrix" values="0 0 0 0 0 0 0 0 0 0 0 0 0 0 0 0 0 0 127 0" result="hardAlpha"/>
<feOffset dy="2"/>
<feGaussianBlur stdDeviation="20"/>
<feComposite in2="hardAlpha" operator="out"/>
<feColorMatrix type="matrix" values="0 0 0 0 1 0 0 0 0 1 0 0 0 0 1 0 0 0 0.5 0"/>
<feBlend mode="normal" in2="effect1_dropShadow_44_2504" result="effect2_dropShadow_44_2504"/>
<feColorMatrix in="SourceAlpha" type="matrix" values="0 0 0 0 0 0 0 0 0 0 0 0 0 0 0 0 0 0 127 0" result="hardAlpha"/>
<feOffset dy="4"/>
<feGaussianBlur stdDeviation="20"/>
<feComposite in2="hardAlpha" operator="out"/>
<feColorMatrix type="matrix" values="0 0 0 0 0.909804 0 0 0 0 0.305882 0 0 0 0 0.054902 0 0 0 1 0"/>
<feBlend mode="normal" in2="effect2_dropShadow_44_2504" result="effect3_dropShadow_44_2504"/>
<feBlend mode="normal" in="SourceGraphic" in2="effect3_dropShadow_44_2504" result="shape"/>
</filter>
</defs>
</svg>
