<svg width="40" height="40" viewBox="0 0 40 40" fill="none" xmlns="http://www.w3.org/2000/svg">
<path d="M26.0156 30H13.9844C12.928 29.9988 11.9153 29.5786 11.1684 28.8316C10.4214 28.0847 10.0012 27.072 10 26.0156V13.9844C10.0012 12.928 10.4214 11.9153 11.1684 11.1684C11.9153 10.4214 12.928 10.0012 13.9844 10H26.0156C27.072 10.0012 28.0847 10.4214 28.8316 11.1684C29.5786 11.9153 29.9988 12.928 30 13.9844V26.0156C29.9988 27.072 29.5786 28.0847 28.8316 28.8316C28.0847 29.5786 27.072 29.9988 26.0156 30ZM13.9844 11.5625C13.3423 11.5632 12.7267 11.8186 12.2727 12.2727C11.8186 12.7267 11.5632 13.3423 11.5625 13.9844V26.0156C11.5632 26.6577 11.8186 27.2733 12.2727 27.7274C12.7267 28.1814 13.3423 28.4368 13.9844 28.4375H26.0156C26.6577 28.4368 27.2733 28.1814 27.7274 27.7274C28.1814 27.2733 28.4368 26.6577 28.4375 26.0156V13.9844C28.4368 13.3423 28.1814 12.7267 27.7274 12.2727C27.2733 11.8186 26.6577 11.5632 26.0156 11.5625H13.9844Z" fill="#E84E0E"/>
<path d="M25.4687 18.125C25.2615 18.125 25.0628 18.0427 24.9163 17.8962C24.7698 17.7497 24.6875 17.551 24.6875 17.3438V15.2887H22.6351C22.4279 15.2887 22.2292 15.2064 22.0827 15.0599C21.9362 14.9134 21.8539 14.7146 21.8539 14.5074C21.8539 14.3002 21.9362 14.1015 22.0827 13.955C22.2292 13.8085 22.4279 13.7262 22.6351 13.7262H25.1047C25.4085 13.7269 25.6996 13.848 25.9143 14.063C26.129 14.278 26.2497 14.5693 26.25 14.8731V17.3438C26.25 17.551 26.1677 17.7497 26.0212 17.8962C25.8746 18.0427 25.6759 18.125 25.4687 18.125Z" fill="#E84E0E"/>
<path d="M21.9988 18.7602C21.8442 18.7604 21.693 18.7147 21.5644 18.6289C21.4358 18.5432 21.3355 18.4212 21.2762 18.2784C21.217 18.1356 21.2014 17.9785 21.2315 17.8268C21.2616 17.6752 21.336 17.5359 21.4453 17.4266L24.684 14.1883C24.8313 14.046 25.0287 13.9672 25.2335 13.969C25.4383 13.9708 25.6343 14.053 25.7791 14.1978C25.924 14.3427 26.0061 14.5386 26.0079 14.7435C26.0097 14.9483 25.931 15.1456 25.7887 15.293L22.5504 18.5317C22.404 18.6778 22.2057 18.76 21.9988 18.7602Z" fill="#E84E0E"/>
<path d="M14.5046 18.1418C14.402 18.1418 14.3005 18.1216 14.2057 18.0824C14.1109 18.0431 14.0248 17.9855 13.9522 17.913C13.8797 17.8405 13.8221 17.7543 13.7829 17.6595C13.7436 17.5648 13.7234 17.4632 13.7234 17.3606V14.891C13.7237 14.5869 13.8447 14.2952 14.0598 14.0801C14.2748 13.8651 14.5665 13.7441 14.8707 13.7438H17.3402C17.5474 13.7438 17.7461 13.8261 17.8926 13.9726C18.0391 14.1191 18.1214 14.3178 18.1214 14.525C18.1214 14.7322 18.0391 14.9309 17.8926 15.0775C17.7461 15.224 17.5474 15.3063 17.3402 15.3063H15.2859V17.3606C15.2859 17.4632 15.2657 17.5648 15.2264 17.6595C15.1872 17.7543 15.1296 17.8405 15.0571 17.913C14.9845 17.9855 14.8984 18.0431 14.8036 18.0824C14.7088 18.1216 14.6072 18.1418 14.5046 18.1418Z" fill="#E84E0E"/>
<path d="M17.9765 18.7781C17.7693 18.7781 17.5707 18.6957 17.4242 18.5492L14.1855 15.3125C14.039 15.166 13.9568 14.9672 13.9568 14.76C13.9568 14.5528 14.0392 14.3541 14.1857 14.2076C14.3323 14.0611 14.531 13.9788 14.7382 13.9789C14.9454 13.9789 15.1441 14.0613 15.2906 14.2078L18.5289 17.4461C18.6382 17.5553 18.7127 17.6946 18.7429 17.8461C18.7731 17.9977 18.7577 18.1549 18.6986 18.2977C18.6394 18.4405 18.5393 18.5626 18.4107 18.6484C18.2822 18.7343 18.1311 18.7801 17.9765 18.7801V18.7781Z" fill="#E84E0E"/>
<path d="M17.3515 26.2836H14.8828C14.5785 26.2835 14.2868 26.1627 14.0715 25.9477C13.8563 25.7327 13.7352 25.441 13.7347 25.1368V22.6672C13.7347 22.46 13.8171 22.2613 13.9636 22.1148C14.1101 21.9683 14.3088 21.886 14.516 21.886C14.7232 21.886 14.9219 21.9683 15.0684 22.1148C15.2149 22.2613 15.2972 22.46 15.2972 22.6672V24.7211H17.3515C17.5587 24.7211 17.7575 24.8035 17.904 24.95C18.0505 25.0965 18.1328 25.2952 18.1328 25.5024C18.1328 25.7096 18.0505 25.9083 17.904 26.0548C17.7575 26.2013 17.5587 26.2836 17.3515 26.2836Z" fill="#E84E0E"/>
<path d="M14.7492 26.0504C14.5947 26.0504 14.4437 26.0045 14.3153 25.9187C14.1868 25.8328 14.0867 25.7108 14.0276 25.5681C13.9685 25.4254 13.953 25.2683 13.9831 25.1168C14.0133 24.9652 14.0877 24.8261 14.1969 24.7168L17.4356 21.4781C17.5821 21.3316 17.7808 21.2494 17.988 21.2494C18.1952 21.2494 18.3939 21.3318 18.5404 21.4783C18.6869 21.6249 18.7692 21.8236 18.7692 22.0308C18.7691 22.238 18.6868 22.4367 18.5402 22.5832L15.302 25.8203C15.2296 25.8932 15.1434 25.9511 15.0486 25.9906C14.9537 26.0301 14.852 26.0504 14.7492 26.0504Z" fill="#E84E0E"/>
<path d="M25.1172 26.2661H22.6465C22.4393 26.2661 22.2406 26.1838 22.0941 26.0372C21.9475 25.8907 21.8652 25.692 21.8652 25.4848C21.8652 25.2776 21.9475 25.0789 22.0941 24.9324C22.2406 24.7859 22.4393 24.7036 22.6465 24.7036H24.7004V22.6497C24.7004 22.4425 24.7827 22.2437 24.9292 22.0972C25.0757 21.9507 25.2744 21.8684 25.4816 21.8684C25.6888 21.8684 25.8876 21.9507 26.0341 22.0972C26.1806 22.2437 26.2629 22.4425 26.2629 22.6497V25.1192C26.2626 25.4231 26.1418 25.7144 25.9271 25.9294C25.7123 26.1444 25.4211 26.2654 25.1172 26.2661Z" fill="#E84E0E"/>
<path d="M25.2484 26.0328C25.1458 26.033 25.0442 26.0128 24.9494 25.9735C24.8546 25.9343 24.7685 25.8766 24.6961 25.8039L21.4574 22.5656C21.3108 22.4191 21.2285 22.2203 21.2285 22.0131C21.2285 21.8059 21.3108 21.6071 21.4574 21.4606C21.6039 21.314 21.8027 21.2317 22.0099 21.2317C22.2172 21.2317 22.4159 21.314 22.5625 21.4606L25.8007 24.6992C25.91 24.8085 25.9844 24.9477 26.0145 25.0992C26.0446 25.2507 26.0291 25.4078 25.97 25.5505C25.9109 25.6933 25.8108 25.8153 25.6824 25.9011C25.5539 25.9869 25.4029 26.0328 25.2484 26.0328Z" fill="#E84E0E"/>
</svg>
