<svg width="40" height="40" viewBox="0 0 40 40" fill="none" xmlns="http://www.w3.org/2000/svg">
<path d="M20 23.4997C21.8705 23.4997 23.3869 21.9833 23.3869 20.1128C23.3869 18.2422 21.8705 16.7258 20 16.7258C18.1294 16.7258 16.613 18.2422 16.613 20.1128C16.613 21.9833 18.1294 23.4997 20 23.4997Z" fill="#E84E0E"/>
<path d="M30.6626 19.1744C28.0592 16.0283 24.1182 13 20.0001 13C15.8812 13 11.9393 16.0305 9.33758 19.1744C8.88754 19.718 8.88754 20.5072 9.33758 21.0508C9.99168 21.8412 11.363 23.367 13.1945 24.7002C17.807 28.058 22.183 28.0654 26.8057 24.7002C28.6372 23.367 30.0085 21.8412 30.6626 21.0508C31.1114 20.5082 31.1137 19.7198 30.6626 19.1744ZM20.0001 15.3709C22.6148 15.3709 24.7418 17.4979 24.7418 20.1126C24.7418 22.7273 22.6148 24.8543 20.0001 24.8543C17.3854 24.8543 15.2584 22.7273 15.2584 20.1126C15.2584 17.4979 17.3854 15.3709 20.0001 15.3709Z" fill="#E84E0E"/>
</svg>
