<svg width="40" height="40" viewBox="0 0 40 40" fill="none" xmlns="http://www.w3.org/2000/svg">
<path d="M11.875 11.276C11.875 12.5328 10.7837 13.5517 9.43761 13.5517C8.09127 13.5517 7 12.5328 7 11.276C7 10.0189 8.09127 9 9.43761 9C10.7837 9 11.875 10.0189 11.875 11.276Z" fill="white"/>
<path d="M11.875 20.3793C11.875 21.6363 10.7837 22.6552 9.43761 22.6552C8.09127 22.6552 7 21.6363 7 20.3793C7 19.1224 8.09127 18.1035 9.43761 18.1035C10.7837 18.1035 11.875 19.1224 11.875 20.3793Z" fill="white"/>
<path d="M11.875 28.7241C11.875 29.9809 10.7837 31 9.43761 31C8.09127 31 7 29.9809 7 28.7241C7 27.4673 8.09127 26.4482 9.43761 26.4482C10.7837 26.4482 11.875 27.4673 11.875 28.7241Z" fill="white"/>
<path d="M16.1766 12.0347H31.9486C32.53 12.0347 33 11.5261 33 10.8968C33 10.2676 32.53 9.75879 31.9486 9.75879H16.1766C15.5952 9.75879 15.125 10.2676 15.125 10.8968C15.125 11.5261 15.5952 12.0347 16.1766 12.0347Z" fill="white"/>
<path d="M31.9486 18.8623H16.1766C15.5952 18.8623 15.125 19.3709 15.125 20.0001C15.125 20.6294 15.5952 21.1382 16.1766 21.1382H31.9486C32.53 21.1382 33 20.6294 33 20.0001C33 19.3709 32.53 18.8623 31.9486 18.8623Z" fill="white"/>
<path d="M31.9486 27.9658H16.1766C15.5952 27.9658 15.125 28.4745 15.125 29.1038C15.125 29.733 15.5952 30.2417 16.1766 30.2417H31.9486C32.53 30.2417 33 29.733 33 29.1038C33 28.4745 32.53 27.9658 31.9486 27.9658Z" fill="white"/>
</svg>
