<svg width="428" height="58" viewBox="0 0 428 58" fill="none" xmlns="http://www.w3.org/2000/svg">
<mask id="mask0_1_9" style="mask-type:alpha" maskUnits="userSpaceOnUse" x="0" y="0" width="428" height="58">
<rect width="428" height="58" fill="#C4C4C4"/>
</mask>
<g mask="url(#mask0_1_9)">
<path d="M66.71 -308.938C68.643 -312.286 72.9241 -313.433 76.2721 -311.5L613.561 -1.29593C616.909 0.637064 618.057 4.91819 616.124 8.26624L442.494 309.002C440.273 312.849 434.378 310.557 435.338 306.22V306.22C458.848 200.047 369.555 102.861 261.775 117.314L150.397 132.25V132.25C49.6933 140.15 -48.5904 98.7338 -113.268 21.1416L-119.146 14.0892C-119.375 13.8151 -119.408 13.4276 -119.229 13.1186L66.71 -308.938Z" fill="#CD572A"/>
<path d="M-97.8584 -261.557C-97.8584 -265.423 -94.7244 -268.557 -90.8584 -268.557H458.142C462.008 -268.557 465.142 -265.423 465.142 -261.557V38.5115C465.142 42.433 459.633 43.3009 458.427 39.5695V39.5695C429.136 -51.0831 319.237 -85.8479 243.139 -28.5333L162.223 32.4098V32.4098C88.1478 82.1072 -5.13572 93.6475 -89.0888 63.5001L-97.3482 60.5341C-97.6543 60.4242 -97.8584 60.134 -97.8584 59.8088V-261.557Z" fill="#2D2B2E"/>
</g>
</svg>
