<svg width="8" height="27" viewBox="0 0 8 27" fill="none" xmlns="http://www.w3.org/2000/svg">
<path fill-rule="evenodd" clip-rule="evenodd" d="M0.992188 3.33333C0.992188 1.49238 2.48457 0 4.32552 0C6.16647 0 7.65885 1.49238 7.65885 3.33333C7.65885 5.17428 6.16647 6.66667 4.32552 6.66667C2.48457 6.66667 0.992188 5.17428 0.992188 3.33333ZM0.992188 23.3333C0.992188 21.4924 2.48457 20 4.32552 20C6.16647 20 7.65885 21.4924 7.65885 23.3333C7.65885 25.1743 6.16647 26.6667 4.32552 26.6667C2.48457 26.6667 0.992188 25.1743 0.992188 23.3333ZM4.32552 10C2.48457 10 0.992188 11.4924 0.992188 13.3333C0.992188 15.1743 2.48457 16.6667 4.32552 16.6667C6.16647 16.6667 7.65885 15.1743 7.65885 13.3333C7.65885 11.4924 6.16647 10 4.32552 10Z" fill="white"/>
</svg>
