<svg width="24" height="28" viewBox="0 0 24 28" fill="none" xmlns="http://www.w3.org/2000/svg">
<path d="M11.9998 1.91968V3.96351C5.55651 3.96351 0.315674 9.20568 0.315674 15.6488C0.315674 22.092 5.55651 27.333 11.9998 27.333C18.4432 27.333 23.684 22.0922 23.684 15.6488C23.684 14.8423 23.0303 14.1887 22.2238 14.1887C21.4173 14.1887 20.7637 14.8423 20.7637 15.6488C20.7637 20.4803 16.8315 24.4125 12 24.4125C7.16851 24.4125 3.23634 20.4803 3.23634 15.6488C3.23634 10.816 7.16851 6.88384 12 6.88384V8.92868C12 9.92801 13.1138 10.5242 13.9453 9.96984L19.2022 6.46534C19.9452 5.97001 19.9452 4.87834 19.2022 4.38301L13.9453 0.878511C13.1135 0.324177 11.9998 0.920345 11.9998 1.91968Z" fill="white"/>
</svg>
