<svg width="40" height="40" viewBox="0 0 40 40" fill="none" xmlns="http://www.w3.org/2000/svg">
<path d="M31.4048 17.9016L28.771 17.47C28.5823 16.8154 28.3209 16.1855 27.9902 15.5877L29.5149 13.4523C29.7146 13.173 29.6831 12.7901 29.4402 12.5472L27.4529 10.5599C27.2093 10.3163 26.8257 10.2841 26.5478 10.4852L24.4123 12.0099C23.8147 11.6791 23.1848 11.4177 22.5301 11.2291L22.0984 8.59523C22.0422 8.25625 21.7491 8.00781 21.4054 8.00781H18.5947C18.2509 8.00781 17.9579 8.25625 17.9016 8.59523L17.47 11.2291C16.8154 11.4177 16.1855 11.6792 15.5877 12.0099L13.4523 10.4852C13.1723 10.2841 12.7901 10.3163 12.5472 10.5599L10.5599 12.5472C10.317 12.7901 10.2855 13.173 10.4852 13.4523L12.0099 15.5877C11.6791 16.1854 11.4177 16.8153 11.2291 17.47L8.59523 17.9016C8.25625 17.9579 8.00781 18.2509 8.00781 18.5947V21.4054C8.00781 21.7491 8.25625 22.0422 8.59523 22.0984L11.2291 22.5301C11.4177 23.1847 11.6792 23.8146 12.0099 24.4123L10.4852 26.5478C10.2855 26.8271 10.317 27.21 10.5599 27.4529L12.5472 29.4402C12.7901 29.6823 13.1723 29.7133 13.4523 29.5149L15.5877 27.9902C16.1854 28.3209 16.8153 28.5823 17.47 28.771L17.9016 31.4048C17.9579 31.7438 18.2509 31.9923 18.5947 31.9923H21.4054C21.7491 31.9923 22.0422 31.7438 22.0984 31.4048L22.5301 28.771C23.1847 28.5823 23.8146 28.3209 24.4123 27.9902L26.5478 29.5149C26.8257 29.7132 27.2093 29.6823 27.4529 29.4402L29.4402 27.4529C29.6831 27.21 29.7146 26.8271 29.5149 26.5478L27.9902 24.4123C28.3209 23.8147 28.5823 23.1848 28.771 22.5301L31.4048 22.0984C31.7438 22.0422 31.9923 21.7491 31.9923 21.4054V18.5947C31.9923 18.2509 31.7438 17.9579 31.4048 17.9016V17.9016ZM20.0001 24.9187C17.2882 24.9187 15.0814 22.7119 15.0814 20C15.0814 17.2881 17.2882 15.0813 20.0001 15.0813C22.712 15.0813 24.9188 17.2881 24.9188 20C24.9188 22.7119 22.712 24.9187 20.0001 24.9187Z" fill="white"/>
</svg>
