<svg width="428" height="497" viewBox="0 0 428 497" fill="none" xmlns="http://www.w3.org/2000/svg">
<path d="M68.71 -193.938C70.643 -197.286 74.9241 -198.433 78.2721 -196.5L615.561 113.704C618.909 115.637 620.057 119.918 618.124 123.266L444.494 424.002C442.273 427.849 436.378 425.557 437.338 421.22C460.848 315.047 371.555 217.861 263.775 232.314L152.397 247.25C51.6933 255.15 -46.5904 213.734 -111.268 136.142L-117.146 129.089C-117.375 128.815 -117.408 128.428 -117.229 128.119L68.71 -193.938Z" fill="#CD572A"/>
<path d="M-95.8584 -146.557C-95.8584 -150.423 -92.7244 -153.557 -88.8584 -153.557H460.142C464.008 -153.557 467.142 -150.423 467.142 -146.557V153.512C467.142 157.433 461.633 158.301 460.427 154.569C431.136 63.9169 321.237 29.1521 245.139 86.4667L164.223 147.41C90.1478 197.107 -3.13572 208.647 -87.0888 178.5L-95.3482 175.534C-95.6543 175.424 -95.8584 175.134 -95.8584 174.809V-146.557Z" fill="#212122"/>
</svg>
